<svg viewBox="0 0 100 100" xmlns="http://www.w3.org/2000/svg">
  <!-- Globe -->
  <circle cx="50" cy="50" r="30" fill="none" stroke="#fcdc00" stroke-width="2.5"/>
  
  <!-- Latitude lines -->
  <ellipse cx="50" cy="50" rx="30" ry="12" fill="none" stroke="#fcdc00" stroke-width="1.5" opacity="0.6"/>
  <ellipse cx="50" cy="50" rx="30" ry="8" fill="none" stroke="#fcdc00" stroke-width="1.5" opacity="0.6"/>
  
  <!-- Longitude line -->
  <line x1="50" y1="20" x2="50" y2="80" stroke="#fcdc00" stroke-width="1.5" opacity="0.6"/>
  
  <!-- Africa continent (simplified) -->
  <path d="M 50 35 L 55 40 L 60 38 L 62 45 L 58 48 L 60 55 L 55 60 L 50 58 L 48 65 L 45 60 L 42 62 L 40 52 L 45 48 L 42 42 L 45 38 Z" 
        fill="#fcdc00" opacity="0.7"/>
  
  <!-- Sun symbol overlay -->
  <circle cx="62" cy="28" r="3" fill="#fcdc00"/>
  <line x1="62" y1="22" x2="62" y2="18" stroke="#fcdc00" stroke-width="1.5"/>
  <line x1="62" y1="38" x2="62" y2="34" stroke="#fcdc00" stroke-width="1.5"/>
  <line x1="68" y1="28" x2="72" y2="28" stroke="#fcdc00" stroke-width="1.5"/>
  <line x1="56" y1="28" x2="52" y2="28" stroke="#fcdc00" stroke-width="1.5"/>
</svg>